<svg width="16" height="16" viewBox="0 0 16 16" fill="none" xmlns="http://www.w3.org/2000/svg">
<path d="M12 2H4C2.89543 2 2 2.89543 2 4V12C2 13.1046 2.89543 14 4 14H12C13.1046 14 14 13.1046 14 12V4C14 2.89543 13.1046 2 12 2Z" fill="#43454A"/>
<path fill-rule="evenodd" clip-rule="evenodd" d="M4 2H12C13.1046 2 14 2.89543 14 4V12C14 13.1046 13.1046 14 12 14H4C2.89543 14 2 13.1046 2 12V4C2 2.89543 2.89543 2 4 2ZM12 3H8.05944L3.23651 12.6459C3.41995 12.8625 3.69391 13 4 13H7.94092L12.7637 3.35441C12.5803 3.13763 12.3062 3 12 3ZM13 5.1179L9.05895 13H12C12.5523 13 13 12.5523 13 12V5.1179ZM4 3H6.94141L3 10.8828V4C3 3.44772 3.44772 3 4 3Z" fill="#CED0D6"/>
</svg>
