<svg xmlns="http://www.w3.org/2000/svg" width="16" height="16">
  <path d="M15 8C15 4.13401 11.866 1 8 1C4.13401 1 1 4.13401 1 8H15Z" fill="#2F2936"/>
  <path d="M14 8H15C15 4.13401 11.866 1 8 1C4.13401 1 1 4.13401 1 8H2C2 4.68629 4.68629 2 8 2C11.3137 2 14 4.68629 14 8Z" fill="#B589EC"/>
  <path d="M15.5 9.5L10.5 10M15.5 12.25L10.5 12.75M15.5 15L10.5 15.5" stroke="#DB5C5C" stroke-linecap="round" stroke-linejoin="round"/>
  <path d="M14.9999 8.04253C15 8.02837 15 8.01419 15 8H1C1 11.866 4.13401 15 8 15C8.33952 15 8.6734 14.9758 9 14.9291V9.99999C8.99909 9.23795 9.57667 8.58485 10.3509 8.50744L14.9999 8.04253Z" fill="#45322B"/>
  <path d="M9 14.9291C8.6734 14.9758 8.33952 15 8 15C4.13401 15 1 11.866 1 8H2C2 11.3137 4.68629 14 8 14C8.34071 14 8.67479 13.9716 9 13.917V14.9291Z" fill="#C77D55"/>
  <path d="m8.4612 11.5h0.53881v-0.9057h-0.40787c-0.32735 0-0.57287-0.2455-0.57287-0.5729v-3.2026h1.4404l0.00546-0.90569h-1.4458v-1.4131h-0.94388v0.94934c0 0.2728-0.19096 0.46375-0.46376 0.46375h-0.70382l-0.00546 0.90569h1.0803l0.00546 3.2954c0 0.7966 0.62198 1.3858 1.4731 1.3858z" fill="#CED0D6"/>
</svg>
